<svg width="3864" height="4007" viewBox="0 0 3864 4007" fill="none" xmlns="http://www.w3.org/2000/svg">
<path d="M1785.5 2683C1793.5 2673.12 1838.24 2626.23 1850.82 2624.32C1859.13 2623.11 1867.85 2630.41 1873.16 2636.08C1879.88 2643.1 1885.14 2654.28 1890.52 2663.1C1896.41 2673.28 1904.36 2686.96 1908.53 2697.97C1908.49 2691.79 1910.9 2684.42 1913.24 2678.65C1919.25 2663.9 1935.96 2645.09 1956.5 2650.53C1977.05 2655.97 2002.35 2665.86 2013.33 2682.77C2011.79 2674.95 1999.85 2635.66 2000.79 2620.01C2002.73 2604.59 2008.89 2589.91 2018.6 2577.55C2022.48 2572.12 2027.2 2567.3 2032.57 2563.29C2054.48 2546.64 2077.81 2526.8 2104.41 2519.81C2114.88 2517.05 2162.07 2507.87 2172.59 2505.2C2157.68 2499.62 2071.18 2429.02 2071.18 2429.02L2133.26 2293.6C2108.46 2306.9 2035.63 2358.19 2035.63 2358.19C2046.8 2314.5 2045.21 2258.77 2029.68 2219.64C2023.95 2206.43 2017.43 2193.58 2010.14 2181.17C1988.67 2145.63 1954.31 2119.87 1916.49 2100.35M1785.22 2683.64C1785.62 2668.64 1785.27 2652.85 1784.18 2636.27C1783.27 2622.16 1781.31 2598.43 1772.4 2587.85C1756.38 2568.96 1731.45 2561.26 1709.19 2556.96M1709.19 2556.96C1708.62 2556.85 1709.5 2557.44 1709.19 2556.96ZM1709.19 2556.96C1709.19 2556.96 1768.41 2555.01 1768.7 2528.35C1768.99 2501.69 1757.95 2466.83 1716.36 2450.09C1685.33 2437.6 1722.8 2446.66 1748.94 2432.76C1769.84 2421.64 1769.29 2416.75 1749.87 2405.07C1769.33 2402.18 1810.69 2390.63 1820.48 2367.52C1834.58 2345.42 1836.88 2321.17 1837.05 2295.55C1837.05 2295.55 1875.69 2303.4 1893.5 2292.09C1901.92 2287.1 1908.91 2280.05 1913.79 2271.64C1923.36 2255 1930.26 2237.03 1934.25 2218.38C1936.93 2208.82 1937.95 2198.9 1937.25 2189.06C1937.38 2162.2 1926.96 2124.94 1916.49 2100.35M1916.49 2100.35C1915.34 2098.19 1914.34 2099.27 1916.49 2100.35Z" stroke="white" stroke-opacity="0.06"/>
<path d="M1568.78 2936.65C1589.49 2911.06 1705.35 2789.64 1737.93 2784.7C1759.45 2781.57 1782.03 2800.47 1795.79 2815.14C1813.19 2833.32 1826.81 2862.28 1840.73 2885.1C1855.98 2911.47 1876.58 2946.9 1887.36 2975.4C1887.27 2959.42 1893.51 2940.32 1899.57 2925.38C1915.12 2887.18 1958.39 2838.49 2011.6 2852.57C2064.8 2866.65 2130.32 2892.26 2158.74 2936.04C2154.77 2915.81 2123.85 2814.06 2126.26 2773.52C2131.31 2733.61 2147.26 2695.6 2172.4 2663.59C2182.45 2649.51 2194.66 2637.05 2208.57 2626.66C2265.3 2583.54 2325.72 2532.17 2394.6 2514.08C2421.71 2506.91 2543.92 2483.15 2571.16 2476.22C2532.56 2461.78 2308.55 2278.95 2308.55 2278.95L2469.31 1928.29C2405.09 1962.74 2216.48 2095.56 2216.48 2095.56C2245.42 1982.42 2241.31 1838.1 2201.07 1736.76C2186.25 1702.56 2169.36 1669.3 2150.49 1637.15C2094.9 1545.12 2005.92 1478.41 1907.99 1427.86M1568.05 2938.3C1569.09 2899.46 1568.2 2858.57 1565.36 2815.64C1563.01 2779.1 1557.93 2717.65 1534.85 2690.24C1493.38 2641.34 1428.82 2621.41 1371.17 2610.28M1371.17 2610.28C1369.7 2609.97 1371.98 2611.52 1371.17 2610.28ZM1371.17 2610.28C1371.17 2610.28 1524.53 2605.22 1525.27 2536.18C1526.01 2467.14 1497.44 2376.88 1389.73 2333.51C1309.39 2301.17 1406.42 2324.64 1474.1 2288.64C1528.24 2259.85 1526.8 2247.18 1476.52 2216.94C1526.91 2209.46 1634.02 2179.55 1659.36 2119.7C1695.88 2062.49 1701.84 1999.69 1702.26 1933.34C1702.26 1933.34 1802.33 1953.67 1848.44 1924.39C1870.24 1911.46 1888.36 1893.21 1900.99 1871.42C1925.76 1828.33 1943.64 1781.79 1953.96 1733.52C1960.92 1708.75 1963.55 1683.07 1961.74 1657.58C1962.08 1588.03 1935.1 1491.55 1907.99 1427.86M1907.99 1427.86C1905.01 1422.27 1902.41 1425.08 1907.99 1427.86Z" stroke="white" stroke-opacity="0.06"/>
<path d="M1212.75 3467.07C1256.68 3412.82 1502.37 3155.33 1571.45 3144.85C1617.1 3138.2 1664.97 3178.29 1694.15 3209.41C1731.05 3247.96 1759.93 3309.36 1789.45 3357.77C1821.8 3413.68 1865.47 3488.82 1888.34 3549.25C1888.15 3515.36 1901.38 3474.85 1914.22 3443.17C1947.21 3362.17 2038.97 3258.92 2151.79 3288.78C2264.62 3318.63 2403.57 3372.93 2463.82 3465.79C2455.4 3422.89 2389.83 3207.11 2394.96 3121.15C2405.66 3036.5 2439.48 2955.9 2492.78 2888.02C2514.09 2858.17 2539.99 2831.74 2569.5 2809.72C2689.79 2718.27 2817.93 2609.32 2963.98 2570.97C3021.48 2555.77 3280.64 2505.38 3338.4 2490.68C3256.54 2460.07 2781.52 2072.37 2781.52 2072.37L3122.42 1328.75C2986.24 1401.8 2586.27 1683.45 2586.27 1683.45C2647.65 1443.54 2638.92 1137.48 2553.6 922.593C2522.16 850.063 2486.35 779.527 2446.34 711.361C2328.44 516.201 2139.75 374.722 1932.08 267.536M1211.22 3470.58C1213.42 3388.21 1211.52 3301.5 1205.5 3210.47C1200.53 3132.98 1189.74 3002.66 1140.8 2944.55C1052.85 2840.84 915.948 2798.58 793.711 2774.97M793.711 2774.97C790.595 2774.32 795.419 2777.6 793.711 2774.97ZM793.711 2774.97C793.711 2774.97 1118.92 2764.24 1120.49 2617.84C1122.07 2471.44 1061.47 2280.02 833.062 2188.06C662.697 2119.48 868.462 2169.24 1011.98 2092.91C1126.79 2031.85 1123.74 2004.98 1017.11 1940.86C1123.96 1925 1351.1 1861.56 1404.84 1734.64C1482.29 1613.32 1494.92 1480.16 1495.82 1339.45C1495.82 1339.45 1708.01 1382.57 1805.81 1320.47C1852.04 1293.07 1890.45 1254.35 1917.24 1208.16C1969.78 1116.76 2007.68 1018.09 2029.58 915.706C2044.33 863.181 2049.91 808.72 2046.08 754.683C2046.78 607.188 1989.57 402.591 1932.08 267.536M1932.08 267.536C1925.77 255.668 1920.26 261.644 1932.08 267.536Z" stroke="white" stroke-opacity="0.06"/>
</svg>
