<svg width="13" height="13" viewBox="0 0 13 13" fill="none" xmlns="http://www.w3.org/2000/svg">
<path d="M0.0320892 0.251504C0.026756 0.259362 0.458745 0.838172 0.989397 1.53484C1.52005 2.23151 2.64802 3.71389 3.496 4.82699L5.03729 6.85151L4.93863 6.96151C4.88263 7.02175 3.74932 8.2239 2.42136 9.63295C1.09339 11.0446 0.00275668 12.2075 9.00791e-05 12.2206C-0.00524311 12.2337 0.226751 12.2441 0.560075 12.2415L1.12806 12.2389L1.31472 12.0372C1.41872 11.9272 2.38403 10.9032 3.46133 9.75866C4.53864 8.61414 5.45061 7.64509 5.48795 7.60318L5.55461 7.52723L6.08793 8.22913C6.38125 8.61414 7.18923 9.67747 7.88255 10.5889L9.14652 12.2441H11.0798C12.6878 12.2441 13.0104 12.2389 12.9997 12.2101C12.9917 12.1891 12.5011 11.5396 11.9091 10.7618C11.3171 9.98652 10.6398 9.09604 10.4051 8.78699C10.1678 8.47794 9.47184 7.55866 8.85319 6.74937C8.23454 5.93746 7.72789 5.26175 7.72789 5.25127C7.72789 5.23294 10.9971 1.74698 12.1091 0.581505L12.4264 0.248885H11.8424L11.2611 0.251504L10.5811 0.974363C10.2078 1.37246 9.29318 2.34675 8.54653 3.13508L7.19457 4.57032L5.55461 2.41746L3.91199 0.261981L1.9787 0.248885C0.914733 0.241028 0.0374224 0.243647 0.0320892 0.251504ZM4.6133 2.57198C5.24529 3.40484 6.22126 4.68556 6.78124 5.42151C7.34123 6.15485 8.58386 7.78913 9.54384 9.0489C10.5038 10.3113 11.2985 11.3563 11.3118 11.3746C11.3278 11.3982 11.1385 11.406 10.4478 11.406H9.56517L7.81588 9.10652C3.77866 3.80818 1.74138 1.13151 1.71738 1.09222C1.70138 1.06865 1.88271 1.06079 2.57869 1.06079H3.46133L4.6133 2.57198Z" fill="white"/>
</svg>
