<svg width="273" height="321" viewBox="0 0 273 321" fill="none" xmlns="http://www.w3.org/2000/svg">
<path d="M190.701 151.503C200.12 132.597 205.566 105.985 203.411 85.0318C202.485 77.8838 201.188 70.7821 199.528 63.7643C194.521 43.5765 183.984 25.4913 170.446 10.3086C169.671 9.46236 169.32 9.59804 169.56 10.8011L170.492 16.6853C172.139 29.9654 171.444 43.343 168.449 56.0271C167.66 60.7913 166.152 65.3223 163.991 69.4239C160.296 77.615 155.467 85.0281 149.677 91.3949C146.734 94.6064 143.062 96.8404 139.026 97.8758C130.405 100.423 117.897 97.2108 116.921 90.8218C116.479 87.8729 115.92 87.8085 115.247 90.6288C112.372 102.723 108.763 113.831 100.496 122.062C93.9081 131.454 75.4961 130.41 67.1137 128.714C66.9901 136.417 73.5783 139.694 63.6934 141.664C51.3374 144.126 34.934 137.702 48.2897 144.733C58.9742 150.358 61.4916 177.246 61.4147 189.987C59.426 192.292 53.2841 192.7 50.4093 192.97C44.859 193.514 39.26 193.91 33.6124 194.158C32.8668 194.18 32.1683 194.511 31.6474 195.089C31.5822 195.158 31.5289 195.24 31.4897 195.331C31.3758 195.578 31.3547 195.871 31.4311 196.147C31.5075 196.423 31.6752 196.659 31.8975 196.804C40.6539 202.34 51.8607 207.257 56.431 218.71C58.9662 225.117 57.1809 236.651 56.0112 243.468C54.6491 251.482 53.0633 259.004 51.2539 266.036C50.4931 268.992 51.0977 269.385 52.9625 267.263C58.0457 261.522 63.636 256.39 69.6541 251.941C74.0519 248.527 79.5206 247.225 84.9444 248.302C88.5228 249.037 91.3374 253.861 92.919 257.378C94.9354 261.755 95.8912 267.872 97.1537 272.887C98.4807 278.63 99.409 284.459 99.93 290.32C99.9796 290.932 100.189 291.524 100.531 292.017C100.602 292.111 100.696 292.18 100.799 292.214C100.935 292.261 101.078 292.246 101.199 292.173C101.319 292.1 101.406 291.974 101.442 291.822C102.104 288.898 103.268 286.179 104.869 283.819C108.975 277.786 113.509 274.763 120.682 275.282C122.537 275.288 124.37 276.009 125.883 277.327C131.158 282.367 134.771 286.55 136.723 289.874C139.183 294.105 141.899 298.145 144.851 301.961C145.619 302.905 145.97 302.756 145.906 301.514C145.768 298.526 144.908 295.3 144.812 292.581C144.543 284.806 145.48 277.113 147.582 269.856C150.078 262.871 154.239 256.898 159.617 252.579C161.821 250.618 164.303 249.084 166.97 248.032C177.874 243.602 241.507 220.906 253.298 221.787C235.346 220.445 207.382 218.71 207.382 218.71C206.964 217.522 171.823 216.263 191.196 195.089C210.569 173.916 248.119 155.502 248.119 155.502C236.382 157.892 191.196 152.089 191.196 152.089C190.769 152.188 190.602 151.984 190.701 151.503Z" fill="#0F4C3D"/>
<path d="M161.012 177.6C168.258 168.374 174.165 154.543 175.276 142.958C175.55 138.985 175.615 134.997 175.471 131.016C174.93 119.537 171.121 108.601 165.343 98.9135C165.01 98.3713 164.803 98.407 164.803 99.0847L164.671 102.373C164.121 109.746 162.274 116.919 159.239 123.468C158.284 125.964 156.959 128.256 155.323 130.245C152.395 134.284 148.929 137.779 145.051 140.604C143.082 142.026 140.819 142.84 138.488 142.965C133.471 143.415 126.95 140.324 127.113 136.757C127.193 135.111 126.893 135.016 126.214 136.471C123.31 142.713 120.11 148.342 114.666 151.909C110.017 156.286 100.014 153.733 95.5928 151.909C94.6814 156.069 97.9429 158.556 92.2952 158.556C85.2356 158.556 76.9249 153.304 83.4942 158.556C88.7497 162.757 87.1886 177.597 85.7511 184.491C84.4058 185.526 80.986 185.083 79.3767 184.919C76.267 184.615 73.1468 184.225 70.0162 183.749C69.604 183.681 69.1839 183.785 68.8343 184.042C68.791 184.072 68.7527 184.111 68.7212 184.156C68.6316 184.277 68.5879 184.434 68.5997 184.592C68.6114 184.749 68.6777 184.895 68.784 184.998C72.9896 188.943 78.6097 192.817 79.867 199.515C80.5585 203.261 78.3142 209.317 76.9249 212.884C75.2989 217.079 73.6036 220.983 71.8393 224.598C71.0975 226.118 71.3866 226.396 72.6439 225.447C76.0659 222.885 79.6999 220.709 83.4942 218.948C86.2848 217.573 89.4326 217.458 92.2952 218.627C94.1811 219.412 95.1996 222.329 95.6836 224.405C96.3122 226.995 96.1677 230.412 96.3122 233.266C96.4125 236.52 96.2843 239.779 95.9288 243.01C95.889 243.348 95.9393 243.691 96.0734 243.995C96.1021 244.054 96.146 244.101 96.1991 244.131C96.2684 244.171 96.3488 244.178 96.4229 244.152C96.4971 244.125 96.559 244.066 96.5951 243.988C97.279 242.475 98.2164 241.127 99.3548 240.021C102.272 237.196 105.094 236.048 108.979 237.104C109.998 237.307 110.926 237.896 111.613 238.773C113.96 242.074 115.488 244.73 116.196 246.742C117.085 249.3 118.135 251.782 119.339 254.168C119.658 254.762 119.867 254.72 119.968 254.039C120.219 252.406 120.1 250.565 120.345 249.081C121.048 244.84 122.406 240.773 124.356 237.068C126.493 233.553 129.433 230.766 132.861 229.007C134.287 228.182 135.819 227.619 137.4 227.337C143.877 226.114 150.506 226.386 156.888 228.136C159.403 228.821 161.917 229.52 164.432 230.234L168.832 230.826L173.39 231.34C170 227.823 166.792 224.086 163.784 220.146C161.27 216.845 159.617 212.813 159.013 208.504C158.913 207.815 158.985 207.109 159.22 206.464C160.636 202.215 162.772 198.323 165.507 195.007C167.589 192.593 169.815 190.345 172.17 188.279C177.162 182.808 182.82 178.841 188.942 175.139C189.634 174.718 189.59 174.504 188.804 174.504C182.093 174.532 161.219 177.971 161.219 177.971C160.974 177.978 160.905 177.85 161.012 177.6Z" fill="#0D2D25"/>
<path d="M138.423 190.517C142.274 186.149 145.413 179.601 146.004 174.116C146.149 172.235 146.184 170.347 146.107 168.462C145.82 163.027 143.795 157.849 140.725 153.263C140.548 153.006 140.438 153.023 140.438 153.344L140.368 154.901C140.076 158.391 139.094 161.787 137.481 164.888C136.974 166.07 136.27 167.155 135.4 168.097C133.844 170.009 132.002 171.664 129.941 173.001C128.895 173.674 127.692 174.06 126.453 174.119C123.787 174.332 120.322 172.868 120.409 171.179C120.451 170.4 120.292 170.355 119.931 171.044C118.387 174 116.687 176.665 113.794 178.353C111.323 180.426 106.007 179.217 103.658 178.353C103.173 180.323 104.907 181.5 101.905 181.5C98.1536 181.5 93.7371 179.014 97.2282 181.5C100.021 183.489 99.1914 190.515 98.4275 193.78C97.7126 194.269 95.8952 194.06 95.04 193.982C93.3874 193.838 91.7293 193.653 90.0655 193.428C89.8465 193.396 89.6233 193.445 89.4375 193.567C89.4145 193.581 89.3941 193.599 89.3773 193.621C89.3297 193.678 89.3065 193.752 89.3128 193.827C89.319 193.902 89.3542 193.971 89.4107 194.019C91.6457 195.887 94.6324 197.721 95.3005 200.893C95.668 202.666 94.4754 205.533 93.7371 207.222C92.8729 209.208 91.972 211.057 91.0344 212.768C90.6402 213.487 90.7938 213.619 91.462 213.17C93.2805 211.957 95.2117 210.927 97.2282 210.093C98.7112 209.442 100.384 209.388 101.905 209.941C102.907 210.313 103.449 211.694 103.706 212.677C104.04 213.903 103.963 215.521 104.04 216.872C104.093 218.413 104.025 219.956 103.836 221.486C103.815 221.645 103.842 221.808 103.913 221.952C103.928 221.979 103.952 222.002 103.98 222.016C104.017 222.035 104.059 222.038 104.099 222.026C104.138 222.013 104.171 221.985 104.19 221.948C104.554 221.232 105.052 220.594 105.657 220.07C107.207 218.733 108.707 218.189 110.772 218.689C111.313 218.785 111.806 219.064 112.171 219.479C113.419 221.042 114.231 222.299 114.607 223.252C115.079 224.463 115.637 225.638 116.277 226.768C116.447 227.049 116.558 227.029 116.611 226.707C116.745 225.934 116.682 225.062 116.812 224.36C117.186 222.352 117.907 220.426 118.943 218.672C120.079 217.008 121.641 215.689 123.463 214.855C124.221 214.465 125.035 214.198 125.875 214.065C129.318 213.486 132.84 213.615 136.232 214.443C137.568 214.768 138.904 215.099 140.241 215.436L142.579 215.717L145.001 215.96C143.2 214.295 141.495 212.525 139.897 210.66C138.56 209.098 137.682 207.189 137.361 205.148C137.308 204.822 137.346 204.488 137.471 204.182C138.223 202.171 139.358 200.328 140.812 198.758C141.918 197.615 143.102 196.551 144.353 195.573C147.006 192.982 150.012 191.105 153.266 189.352C153.634 189.152 153.61 189.051 153.193 189.051C149.626 189.064 138.534 190.692 138.534 190.692C138.403 190.696 138.367 190.635 138.423 190.517Z" fill="#0F4C3D"/>
<path d="M131.549 187.59C131.278 190.08 130.259 192.316 128.492 194.298C128.328 194.529 128.187 194.776 128.07 195.034C128.044 195.088 128.061 195.115 128.121 195.114C128.747 195.111 129.371 195.05 129.985 194.93C131.58 194.563 133.211 194.375 134.848 194.369C135.039 194.369 135.05 194.415 134.881 194.505C133.388 195.301 132.008 196.153 130.791 197.329C130.217 197.773 129.674 198.256 129.166 198.774C128.499 199.487 127.979 200.323 127.633 201.236C127.576 201.375 127.559 201.527 127.583 201.675C127.73 202.601 128.133 203.467 128.746 204.177C129.48 205.023 130.262 205.826 131.089 206.582L129.977 206.471L128.904 206.344C128.291 206.191 127.678 206.041 127.065 205.894C125.508 205.517 123.892 205.459 122.313 205.722C121.927 205.782 121.553 205.903 121.206 206.081C120.37 206.459 119.653 207.058 119.132 207.813C118.656 208.609 118.325 209.483 118.154 210.394C118.094 210.713 118.123 211.109 118.062 211.46C118.037 211.606 117.986 211.615 117.908 211.487C117.615 210.975 117.359 210.441 117.142 209.891C116.969 209.459 116.597 208.888 116.024 208.179C115.857 207.991 115.63 207.864 115.382 207.82C114.435 207.594 113.746 207.84 113.035 208.447C112.757 208.685 112.529 208.975 112.362 209.3C112.353 209.317 112.338 209.329 112.32 209.335C112.302 209.341 112.282 209.339 112.266 209.33C112.253 209.324 112.242 209.314 112.235 209.301C112.202 209.236 112.19 209.162 112.2 209.09C112.286 208.395 112.318 207.695 112.293 206.996C112.258 206.383 112.293 205.648 112.14 205.092C112.022 204.646 111.773 204.019 111.314 203.85C110.616 203.599 109.848 203.624 109.167 203.919C108.242 204.297 107.356 204.765 106.522 205.316C106.215 205.519 106.144 205.46 106.325 205.133C106.756 204.356 107.169 203.517 107.565 202.616C107.904 201.85 108.452 200.548 108.283 199.743C107.976 198.304 106.606 197.471 105.58 196.624C105.554 196.602 105.538 196.57 105.535 196.536C105.532 196.503 105.543 196.469 105.565 196.443C105.573 196.433 105.582 196.425 105.593 196.418C105.678 196.363 105.78 196.341 105.881 196.355C106.644 196.458 107.405 196.541 108.163 196.607C108.556 196.642 109.39 196.737 109.718 196.515C110.204 196.185 110.067 194.964 110.017 194.459C110.016 194.456 110.015 194.453 110.013 194.45C110.011 194.448 110.008 194.446 110.004 194.445L109.939 194.429C109.929 194.427 109.919 194.423 109.911 194.418C109.902 194.412 109.895 194.405 109.889 194.397C109.883 194.389 109.879 194.379 109.877 194.37C109.875 194.36 109.875 194.35 109.877 194.34C109.885 194.3 109.903 194.264 109.931 194.235L111.073 194.542C111.092 195.014 111.034 195.485 110.901 195.938C110.813 196.294 110.617 196.613 110.339 196.851C110.026 197.089 109.64 197.213 109.247 197.2C108.685 197.2 108.123 197.196 107.561 197.188C107.507 197.188 107.495 197.209 107.521 197.254C107.636 197.462 107.8 197.639 107.999 197.769C109.43 198.651 109.861 199.912 109.292 201.552C109.202 201.79 109.054 202 108.861 202.165C108.825 202.2 108.78 202.223 108.731 202.23C108.639 202.236 108.551 202.265 108.474 202.314C108.396 202.363 108.332 202.43 108.286 202.509C108.092 202.893 107.907 203.251 107.733 203.582C107.67 203.7 107.7 203.735 107.821 203.675C108.597 203.32 109.408 203.047 110.24 202.86C112 202.467 112.874 203.12 113.19 204.896C113.308 205.553 113.33 206.224 113.256 206.888C113.255 206.899 113.255 206.91 113.258 206.921C113.262 206.931 113.267 206.941 113.273 206.949C113.28 206.958 113.289 206.965 113.298 206.97C113.308 206.975 113.319 206.978 113.329 206.979C113.339 206.98 113.35 206.979 113.359 206.977C113.369 206.974 113.378 206.97 113.386 206.964C114.513 206.127 115.965 205.875 116.89 207.164C117.185 207.561 117.432 207.991 117.628 208.444C117.781 208.795 117.812 208.785 117.746 208.411C117.69 208.121 117.682 207.823 117.723 207.531C117.924 206.185 118.587 205.09 119.898 204.569C120.588 204.296 121.075 204.158 121.361 204.155C121.874 204.155 122.389 204.141 122.903 204.131L124.052 204.23C124.748 204.384 125.446 204.482 126.119 204.71C126.762 204.928 127.407 205.139 128.053 205.345C128.101 205.359 128.133 205.345 128.153 205.317C128.16 205.306 128.163 205.293 128.162 205.279C128.16 205.266 128.154 205.254 128.144 205.245C127.224 204.394 126.324 203.525 125.443 202.639C125.277 202.459 125.159 202.241 125.101 202.003C125.093 201.98 125.091 201.955 125.095 201.931C125.099 201.907 125.108 201.885 125.122 201.865C125.618 201.116 126.161 200.399 126.747 199.719C127.791 198.508 129.146 197.452 130.315 196.256C130.516 196.076 130.731 195.912 130.958 195.765C131.041 195.702 131.032 195.684 130.932 195.707C129.755 195.984 128.538 196.044 127.339 195.885C126.929 195.833 126.528 195.73 126.143 195.578C126.117 195.568 126.096 195.548 126.084 195.522C126.073 195.496 126.072 195.467 126.082 195.44C126.088 195.427 126.096 195.416 126.105 195.405C126.951 194.522 127.735 193.58 128.45 192.587C129.196 191.56 129.744 190.173 130.026 189.008C130.564 186.88 130.316 184.629 129.329 182.669C129.254 182.516 129.192 182.516 129.142 182.683C129.035 183.023 128.989 183.333 128.8 183.655C127.971 185.027 126.957 186.28 125.788 187.377C124.802 188.313 123.585 188.969 122.262 189.278C121.831 189.381 121.292 189.422 120.934 189.137C120.543 188.83 120.596 188.028 120.628 187.582C120.628 187.463 120.596 187.444 120.508 187.526L119.496 188.468C119.165 188.683 118.864 188.874 118.594 189.042C118.37 189.168 118.13 189.265 117.881 189.33C117.698 189.385 117.508 189.416 117.317 189.422C117.001 189.436 116.677 189.463 116.348 189.502C116.279 189.502 116.271 189.537 116.322 189.583C116.596 189.833 116.866 190.086 117.128 190.342C117.39 190.598 117.648 190.874 117.895 191.159C118.951 192.402 119.953 193.501 120.77 195.037L120.714 195.075C120.695 195.087 120.68 195.104 120.672 195.124C120.664 195.144 120.662 195.166 120.668 195.187L120.698 195.348C120.704 195.372 120.703 195.396 120.694 195.418C120.685 195.441 120.67 195.46 120.649 195.472L119.803 196.096C119.808 196.037 119.797 195.977 119.772 195.923C119.746 195.87 119.707 195.823 119.657 195.79C119.616 195.762 119.581 195.726 119.556 195.682C119.157 195.021 118.753 194.364 118.345 193.71C118.163 193.417 117.885 193.185 117.669 192.899C117.581 192.781 117.484 192.669 117.379 192.564C117.269 192.453 117.167 192.334 117.073 192.209C116.802 191.88 116.493 191.583 116.153 191.326C116.092 191.279 116.04 191.222 116 191.157C115.959 191.091 115.926 191.02 115.903 190.946C115.884 190.907 115.874 190.864 115.873 190.821C115.872 190.778 115.881 190.735 115.898 190.696C115.916 190.656 115.941 190.621 115.974 190.592C116.006 190.564 116.044 190.543 116.086 190.53C116.106 190.523 116.124 190.51 116.137 190.492C116.149 190.475 116.156 190.454 116.156 190.432C116.164 190.31 116.138 190.187 116.082 190.078C116.026 189.969 115.941 189.876 115.837 189.811C114.697 189.006 113.466 188.338 112.17 187.818L112.851 186.957L113.271 186.48C113.29 186.459 113.314 186.442 113.341 186.431C113.367 186.42 113.396 186.415 113.424 186.417C114.109 186.447 114.786 186.579 115.431 186.81C115.588 186.863 115.73 186.955 115.843 187.076C115.857 187.09 115.873 187.101 115.89 187.108C115.908 187.115 115.927 187.118 115.946 187.116C115.973 187.113 116 187.118 116.025 187.129C116.05 187.14 116.071 187.157 116.087 187.179C116.104 187.201 116.125 187.22 116.149 187.233C116.173 187.247 116.199 187.256 116.227 187.259C116.408 187.282 116.457 187.412 116.561 187.498C116.694 187.61 116.828 187.725 116.961 187.844C117.06 187.923 117.167 187.99 117.281 188.044C117.377 188.094 117.462 188.164 117.528 188.249C117.559 188.288 117.601 188.317 117.648 188.333C117.763 188.374 117.887 188.388 118.009 188.376C118.13 188.363 118.248 188.323 118.353 188.26C119.68 187.493 120.461 186.284 121.169 184.943C121.334 184.63 121.408 184.65 121.388 185.004C121.348 185.77 121.354 187.688 122.578 187.592C123.146 187.565 123.698 187.39 124.178 187.084C125.124 186.477 125.969 185.726 126.683 184.858C127.082 184.431 127.405 183.938 127.638 183.402C128.378 181.995 128.828 180.453 128.962 178.869L128.995 178.162C128.995 178.017 129.045 178.009 129.127 178.126C130.535 180.207 131.464 182.557 131.596 185.024C131.631 185.879 131.615 186.736 131.549 187.59Z" fill="#F13418"/>
<path d="M124.045 204.226L125.224 204.148C125.245 204.147 125.267 204.139 125.284 204.126C125.302 204.114 125.316 204.096 125.324 204.075C125.332 204.055 125.334 204.033 125.329 204.011C125.325 203.99 125.314 203.97 125.299 203.954C124.328 202.955 123.26 202.044 122.752 200.701C122.744 200.681 122.744 200.659 122.752 200.639C122.76 200.619 122.775 200.602 122.794 200.593C123.791 200.098 124.758 199.544 125.69 198.934C126.346 198.5 127.01 198.081 127.682 197.678C128.204 197.372 128.677 197.019 129.188 196.704C129.194 196.701 129.2 196.697 129.204 196.691C129.208 196.686 129.212 196.68 129.213 196.673C129.215 196.667 129.215 196.66 129.214 196.653C129.213 196.646 129.21 196.64 129.206 196.635L129.188 196.599C129.186 196.598 129.184 196.597 129.182 196.597C129.179 196.597 129.177 196.598 129.176 196.599C128.693 196.827 128.174 196.968 127.643 197.016C126.098 197.189 124.54 196.86 123.197 196.078C123.189 196.074 123.183 196.068 123.177 196.061C123.172 196.054 123.168 196.046 123.166 196.037C123.164 196.028 123.163 196.019 123.165 196.011C123.166 196.002 123.169 195.994 123.174 195.986C123.346 195.719 123.535 195.463 123.738 195.22C124.675 194.085 125.713 192.894 126.467 191.74C127.536 190.085 128.307 188.255 128.743 186.333C128.84 185.91 128.879 185.475 128.857 185.041C128.857 184.851 128.805 184.842 128.725 185.015C128.265 186.008 127.552 186.88 126.839 187.702C125.276 189.505 123.375 191.34 120.898 191.735C120.294 191.832 119.587 191.807 119.297 191.295C119.158 191.056 119.068 190.792 119.032 190.518C118.996 190.243 119.015 189.965 119.087 189.698C119.097 189.652 119.18 189.454 119.335 189.105C119.425 188.904 119.477 188.688 119.489 188.468L120.501 187.526C120.588 187.444 120.628 187.463 120.62 187.582C120.591 188.029 120.539 188.824 120.927 189.137C121.284 189.422 121.823 189.381 122.254 189.278C123.578 188.969 124.795 188.313 125.78 187.377C126.948 186.279 127.961 185.027 128.789 183.655C128.982 183.333 129.024 183.023 129.131 182.683C129.182 182.522 129.243 182.518 129.318 182.669C130.305 184.63 130.553 186.88 130.016 189.008C129.734 190.173 129.185 191.56 128.44 192.588C127.726 193.581 126.943 194.524 126.097 195.408C126.087 195.418 126.079 195.43 126.073 195.443C126.067 195.456 126.064 195.47 126.064 195.485C126.064 195.499 126.067 195.513 126.073 195.527C126.079 195.54 126.087 195.552 126.097 195.561C126.107 195.571 126.119 195.579 126.133 195.584C126.517 195.736 126.919 195.839 127.328 195.891C128.528 196.051 129.747 195.992 130.925 195.715C131.024 195.692 131.033 195.715 130.951 195.773C130.724 195.919 130.508 196.083 130.307 196.264C129.139 197.459 127.784 198.515 126.74 199.727C126.153 200.407 125.61 201.124 125.115 201.873C125.1 201.892 125.091 201.915 125.087 201.939C125.084 201.963 125.086 201.988 125.093 202.011C125.151 202.248 125.269 202.467 125.435 202.647C126.312 203.535 127.212 204.404 128.136 205.253C128.146 205.262 128.152 205.274 128.154 205.287C128.156 205.3 128.153 205.314 128.145 205.325C128.125 205.357 128.093 205.366 128.046 205.352C127.399 205.148 126.754 204.937 126.111 204.718C125.438 204.477 124.741 204.376 124.045 204.226ZM123.786 196.073C123.798 196.042 123.798 196.007 123.785 195.976C123.772 195.945 123.748 195.92 123.717 195.906C123.697 195.902 123.676 195.902 123.656 195.909C123.636 195.915 123.619 195.927 123.605 195.942C123.592 195.958 123.583 195.977 123.58 195.997C123.576 196.018 123.579 196.039 123.587 196.058C123.595 196.077 123.608 196.093 123.624 196.106C123.641 196.118 123.661 196.125 123.681 196.127C123.702 196.128 123.723 196.124 123.741 196.115C123.759 196.105 123.775 196.091 123.786 196.073Z" fill="#FD9D32"/>
<path d="M109.794 184.47C111.634 184.47 115.051 185.48 115.192 186.093C115.333 186.706 117.312 188.422 117.689 188.469C117.943 188.93 114.697 187.005 114.502 187.687L112.17 187.809C110.145 187.196 107.99 187.154 105.942 187.687C103.756 188.248 101.73 189.307 100.02 190.78C99.1975 191.479 98.1618 192.595 96.9129 194.127C96.4372 194.719 96.0299 195.362 95.6988 196.046C95.0754 197.308 94.544 198.459 94.1045 199.498C93.3488 201.29 92.4336 203.044 90.5251 203.809C90.6451 203.632 90.8293 203.509 91.0386 203.465C91.0819 203.456 91.1214 203.434 91.1521 203.402C91.2467 203.303 91.3492 203.211 91.4587 203.128C91.794 202.876 92.0955 202.582 92.3554 202.253C92.3711 202.234 92.3827 202.212 92.3895 202.188C92.3964 202.164 92.3983 202.139 92.3953 202.115C92.3671 201.875 92.2893 201.644 92.1669 201.436C92.1653 201.434 92.164 201.432 92.1631 201.431C92.1622 201.429 92.1617 201.426 92.1617 201.424C92.1617 201.422 92.1622 201.42 92.1631 201.418C92.164 201.416 92.1653 201.414 92.1669 201.413C92.1798 201.404 92.1908 201.393 92.1991 201.381C92.2036 201.376 92.2069 201.37 92.2088 201.364C92.2107 201.358 92.211 201.351 92.2098 201.345C92.2086 201.339 92.2059 201.333 92.2019 201.328C92.1979 201.323 92.1927 201.319 92.1868 201.316C92.0824 201.245 91.9591 201.207 91.8327 201.206C91.7834 201.204 91.7352 201.221 91.6978 201.253C91.6582 201.297 91.6074 201.329 91.5509 201.346C91.4944 201.362 91.4344 201.363 91.3774 201.348C92.1147 200.753 92.6961 199.988 93.0713 199.118C93.2279 198.901 93.3557 198.665 93.4515 198.416C93.496 198.295 93.4776 198.285 93.3994 198.385C93.248 198.584 93.1195 198.8 93.0162 199.027C92.8322 199.323 92.6197 199.6 92.3815 199.854C92.1597 200.072 91.8958 200.243 91.606 200.356C91.3161 200.47 91.0063 200.523 90.6953 200.513C89.3846 200.513 88.0724 200.422 86.7893 200.76C85.8971 200.993 84.2154 201.808 84.3503 202.958C84.3994 203.372 84.7029 203.695 85.0034 203.973C86.2441 205.118 87.6034 206.129 89.0581 206.987C90.4445 207.874 91.9034 208.644 93.4193 209.286C94.1537 209.665 94.9074 210.006 95.6774 210.307C96.1669 210.487 97.3646 210.862 99.2706 211.434C100.65 211.809 102.015 212.091 103.443 212.107C103.472 212.107 103.499 212.097 103.52 212.078C103.541 212.058 103.553 212.032 103.555 212.004C103.606 211.371 103.606 210.735 103.555 210.102C103.411 208.426 102.222 207.367 101.135 206.177C100.823 205.848 100.545 205.488 100.305 205.104C99.2767 203.384 99.3718 201.144 99.9574 199.279C100.197 198.538 100.555 197.841 101.018 197.215C102.042 195.784 103.365 194.292 104.972 193.506C105.765 193.115 106.598 192.811 107.457 192.597C107.886 192.489 108.326 192.426 108.769 192.411C109.275 192.388 109.783 192.408 110.286 192.469C111.865 192.705 113.357 193.342 114.617 194.321C114.82 194.483 115.012 194.658 115.192 194.846C115.376 195.034 115.564 195.213 115.756 195.384C115.797 195.42 115.813 195.411 115.799 195.358C115.748 195.153 115.658 194.96 115.534 194.789C115.12 194.215 114.681 193.562 114.176 193.124C113.439 192.487 112.554 192.045 111.602 191.841C110.216 191.511 108.776 191.487 107.38 191.769C105.263 192.215 103.328 193.282 101.821 194.835C100.762 195.912 100.016 196.945 99.5833 197.933C99.1224 198.988 98.8531 199.664 98.7755 199.963C98.2418 201.928 98.401 204.018 99.2262 205.88C99.3938 206.263 99.6263 206.739 99.9237 207.308C100.204 207.84 100.353 208.382 99.6309 208.595C99.2772 208.661 98.9155 208.675 98.5578 208.634C97.4986 208.469 96.4644 208.171 95.4796 207.747L94.1153 207.155C94.0896 207.143 94.0694 207.122 94.0591 207.096C94.0488 207.069 94.0492 207.04 94.0601 207.014C94.0643 207.005 94.0694 206.997 94.0754 206.99C94.6181 206.319 95.0215 205.546 95.2619 204.718C95.6145 203.641 95.9676 202.561 96.3212 201.48C96.7433 200.195 97.2165 198.928 97.7407 197.68C97.9884 197.081 98.2993 196.51 98.6682 195.977C99.3408 195.023 100.094 194.129 100.92 193.305C102.031 192.17 103.362 191.273 104.831 190.669C106.3 190.065 107.877 189.766 109.465 189.791C111.726 189.814 113.91 190.762 115.572 192.302C116.245 192.913 116.844 193.6 117.356 194.35C117.699 194.881 118.011 195.369 118.293 195.816C118.454 196.071 118.629 196.316 118.819 196.55C118.833 196.57 118.853 196.585 118.875 196.594C118.898 196.604 118.922 196.607 118.946 196.604C119.092 196.589 119.233 196.54 119.357 196.461C119.398 196.435 119.445 196.423 119.493 196.424C119.524 196.426 119.554 196.422 119.584 196.414C119.608 196.407 119.631 196.395 119.651 196.378C119.67 196.362 119.686 196.342 119.697 196.319C119.711 196.296 119.72 196.271 119.724 196.244C119.728 196.218 119.727 196.191 119.72 196.165C119.703 196.136 119.729 196.113 119.798 196.093L120.645 195.469C120.665 195.457 120.681 195.438 120.689 195.415C120.698 195.393 120.7 195.368 120.694 195.345L120.663 195.184C120.658 195.163 120.659 195.141 120.667 195.121C120.676 195.101 120.69 195.084 120.709 195.072L120.766 195.034C121.128 195.507 121.305 196.095 121.265 196.69C121.235 197.215 121.002 197.499 120.686 197.893C120.034 198.695 119.203 199.333 118.259 199.754C117.418 200.164 116.451 200.238 115.557 199.961C115.27 199.874 115.097 199.736 115.051 199.549C114.86 198.833 114.677 198.247 114.502 197.789C114.251 197.105 113.863 196.48 113.362 195.952C112.861 195.423 112.258 195.002 111.589 194.714L111.074 194.533L109.932 194.226C106.681 194.03 103.741 195.816 102.34 198.748C101.789 199.901 101.711 200.927 101.743 202.15C101.763 202.866 101.91 203.234 102.51 203.674C103.879 204.691 105.169 205.81 106.37 207.022C109.377 209.985 111.303 213.871 111.839 218.059C112.133 220.564 112.077 223.097 111.675 225.586C110.602 232.638 107.794 239.396 103.82 245.514C102.867 246.982 102.041 248.157 101.342 249.04C100.41 250.223 99.4515 251.411 98.4673 252.604C97.7203 253.513 96.3815 254.942 94.451 256.89C93.6447 257.708 92.9048 258.413 92.2313 259.006C89.153 261.738 85.8258 264.177 82.2931 266.289L79.3897 267.937C78.3458 268.444 77.2665 269.01 76.2471 269.432C73.6293 270.515 70.9235 271.371 68.1592 271.992C65.2553 272.636 62.2916 272.972 59.3172 272.996C56.9484 272.98 54.5847 272.775 52.2487 272.382C50.7143 272.121 49.2072 271.718 47.7464 271.181C45.592 270.404 43.5209 269.413 41.564 268.224C39.8803 267.157 38.3311 265.891 36.9498 264.454C34.9344 262.406 33.3397 259.984 32.2559 257.323C31.8558 256.343 31.5246 255.158 31.1905 254.073C31.0005 253.408 30.9519 252.71 31.0479 252.025C31.1803 251.499 31.444 251.015 31.8144 250.619C32.6708 249.777 33.6897 249.634 34.8711 250.19L37.0326 251.361C39.0423 252.563 41.4076 253.523 43.7163 253.524C45.0732 253.551 46.4201 253.286 47.6651 252.745C49.4936 251.895 51.1736 250.756 52.6411 249.373C53.3064 248.746 53.9871 247.939 54.634 247.204C54.8949 246.91 55.1405 246.603 55.3698 246.284C55.9477 245.482 56.587 244.616 57.0468 243.85C58.178 241.979 59.07 239.974 59.7019 237.882C60.0599 236.723 60.3577 235.546 60.5941 234.356C60.7157 233.722 60.8256 233.173 60.9237 232.708C61.0698 232.017 61.1766 231.466 61.2441 231.055C61.5221 229.358 61.8087 227.304 62.1041 224.893C62.1868 224.223 62.2998 223.501 62.4429 222.728C62.6411 221.661 62.8215 220.703 62.984 219.857C63.216 218.659 63.5364 217.337 63.9452 215.89C64.2691 214.752 64.5854 213.785 64.8941 212.987C65.3337 211.831 65.8457 210.705 66.427 209.614C67.0004 208.534 67.6569 207.5 68.3907 206.522C69.1679 205.512 69.9375 204.399 70.7898 203.551C72.1772 202.169 73.7641 201.003 75.4975 200.091C76.0892 199.785 76.541 199.564 76.8527 199.431C78.92 198.574 81.1053 198.037 83.334 197.836C85.6818 197.606 88.0484 197.652 90.3856 197.973C90.4665 197.993 90.5521 197.984 90.6269 197.947C90.7017 197.91 90.7608 197.847 90.7934 197.77C91.5261 196.237 92.2221 194.704 93.1541 193.274C93.4311 192.857 93.9523 192.138 94.7177 191.116C95.5858 190.107 96.5139 189.151 97.497 188.254C98.15 187.808 98.7985 187.361 99.4423 186.912C101.489 185.477 103.84 184.843 106.311 184.47C106.311 184.47 107.954 184.47 109.794 184.47ZM64.7469 231.892L63.9804 235.811C63.196 239.656 61.7092 243.324 59.5946 246.63C59.333 247.039 59.0167 247.492 58.6457 247.989C57.5164 249.534 56.2451 250.971 54.8486 252.281C54.231 252.816 53.583 253.314 52.9079 253.774C52.9056 253.775 52.9038 253.777 52.9025 253.779C52.9013 253.782 52.9006 253.784 52.9006 253.787C52.9006 253.79 52.9013 253.792 52.9025 253.794C52.9038 253.797 52.9056 253.799 52.9079 253.8C52.9096 253.802 52.9117 253.804 52.9141 253.805C52.9165 253.806 52.919 253.806 52.9217 253.806C52.9243 253.806 52.9268 253.806 52.9292 253.805C52.9316 253.804 52.9337 253.802 52.9355 253.8C53.379 253.54 53.8215 253.279 54.263 253.015C54.4915 252.934 54.7412 252.934 54.9697 253.015C55.1996 253.087 55.3023 253.26 55.4204 253.455C55.4466 253.496 55.4605 253.544 55.4602 253.593V253.795C55.4598 253.816 55.4638 253.836 55.472 253.855C55.4802 253.874 55.4924 253.891 55.5078 253.904C55.7837 254.163 56.0474 254.251 55.9477 254.743C55.9317 254.764 55.9106 254.78 55.8864 254.79C54.4781 255.681 53.2691 256.27 52.2594 256.555C51.589 256.745 50.9181 256.931 50.2466 257.113C49.4013 257.343 48.5358 257.492 47.6621 257.557C45.8301 257.697 43.988 257.61 42.1772 257.3C39.5987 256.854 37.3162 255.767 35.1976 254.471C34.9845 254.341 34.9186 254.395 34.9999 254.625C35.465 255.983 36.0881 257.282 36.8563 258.495C37.3664 259.416 37.9744 260.279 38.6698 261.069C40.3852 262.967 42.3882 264.585 44.6054 265.861C45.5676 266.397 46.5695 266.858 47.6023 267.241C50.9746 268.569 54.5561 269.287 58.1797 269.361C61.915 269.421 65.2972 269.072 68.3263 268.314C73.2472 267.091 77.9223 265.034 82.149 262.233C84.986 260.357 87.3963 258.514 89.38 256.702C91.7822 254.482 94.0605 252.131 96.2047 249.661C97.3382 248.366 98.3927 247.004 99.3626 245.582C100.41 244.049 101.429 242.444 102.418 240.767C103.431 239.05 104.496 236.743 105.2 235.205C105.761 233.952 106.243 232.665 106.643 231.351C107.147 229.79 107.571 228.204 107.913 226.599C108.262 224.839 108.425 223.048 108.401 221.254C108.372 218.341 108.036 215.554 106.416 213.085C106.272 212.865 106.013 212.625 105.861 212.352C105.847 212.327 105.826 212.307 105.799 212.296C105.773 212.285 105.744 212.283 105.716 212.291C105.689 212.298 105.665 212.315 105.648 212.338C105.632 212.361 105.623 212.389 105.625 212.418C105.657 212.706 105.657 212.996 105.625 213.284C105.601 213.439 105.538 213.586 105.442 213.71C104.676 214.745 102.376 214.757 101.231 214.717C100.568 214.703 99.9078 214.625 99.2599 214.483C99.1894 214.369 99.0422 214.305 98.8169 214.288C98.5915 214.271 98.3462 214.247 98.1117 214.217C98.0606 214.212 98.012 214.193 97.9707 214.162C97.7996 214.029 97.5922 213.951 97.3759 213.938C97.3268 213.936 97.2791 213.921 97.2364 213.897C97.0461 213.789 96.8296 213.736 96.6109 213.744C96.3633 213.575 96.0836 213.46 95.7893 213.405C95.5378 213.327 95.3017 213.207 95.0918 213.048L94.7852 212.786C94.7707 212.772 94.7531 212.762 94.734 212.756C94.7148 212.75 94.6946 212.749 94.6748 212.752C94.6496 212.752 94.625 212.745 94.6043 212.731C94.5368 212.686 94.546 212.672 94.6304 212.686C94.8303 212.719 95.0255 212.777 95.2113 212.858C95.2773 212.885 95.2972 212.865 95.2742 212.8C95.2639 212.768 95.2462 212.74 95.2228 212.717C95.1993 212.693 95.1707 212.676 95.1393 212.666C94.9231 212.586 94.707 212.513 94.4893 212.436C94.3689 212.393 94.2534 212.338 94.1444 212.271C94.0356 212.203 93.9194 212.148 93.798 212.107C93.7508 212.092 93.7088 212.064 93.6769 212.027C93.6066 211.942 93.5069 211.888 93.3979 211.874C93.312 211.863 93.2276 211.842 93.1464 211.812C93.1049 211.797 93.0669 211.773 93.0347 211.743C93.0026 211.712 92.977 211.675 92.9594 211.634C92.9389 211.589 92.9038 211.553 92.8598 211.53C92.7462 211.474 92.6401 211.404 92.544 211.322C92.4796 211.265 92.4888 211.25 92.5701 211.276C92.9785 211.409 93.3676 211.595 93.7274 211.829C93.9328 211.962 94.1486 212.079 94.3728 212.177C94.3939 212.187 94.4135 212.2 94.4311 212.215C94.4789 212.262 94.5412 212.29 94.6074 212.295C94.6576 212.301 94.7058 212.318 94.7484 212.346C94.9885 212.503 95.2457 212.632 95.5149 212.731C95.5166 212.731 95.5184 212.732 95.5203 212.732C95.5221 212.732 95.524 212.731 95.5257 212.731C95.5274 212.73 95.529 212.729 95.5303 212.728C95.5316 212.726 95.5326 212.725 95.5333 212.723C95.5333 212.712 93.1464 213.089 93.1464 213.085C92.4791 212.741 93.5982 212.551 92.9594 212.215C92.6099 212.034 92.5104 212.014 92.165 211.874C92.0378 211.823 91.5763 211.47 91.4752 211.434C91.0234 211.297 90.5913 211.297 90.1721 211.08C89.4741 210.678 89.45 209.666 88.7346 209.294C88.3796 209.094 88.0501 208.852 87.7535 208.573C87.5496 208.397 87.3442 208.368 87.1403 208.234C86.9972 208.14 86.8531 208.054 86.708 207.977C85.6798 207.428 84.7322 206.74 83.892 205.932C83.7544 205.796 83.6095 205.668 83.4582 205.549C83.309 205.431 83.1663 205.305 83.0305 205.172C82.894 205.038 82.7561 204.905 82.6166 204.774C82.5942 204.753 82.566 204.738 82.5353 204.732C82.5041 204.725 82.4749 204.711 82.4499 204.691C82.4249 204.671 82.4048 204.646 82.3912 204.617C82.2546 204.409 82.0907 204.22 81.9037 204.056C81.8865 204.038 81.8652 204.024 81.8418 204.017C81.8183 204.009 81.7932 204.007 81.7688 204.011C81.7347 204.016 81.7032 204.032 81.6793 204.056C81.6554 204.081 81.6405 204.113 81.637 204.147C81.4933 203.922 81.3896 203.674 81.3304 203.413C81.3291 202.915 81.5177 202.436 81.8578 202.072C81.8629 202.067 81.867 202.061 81.8698 202.054C81.8726 202.047 81.874 202.04 81.874 202.033C81.874 202.026 81.8726 202.018 81.8698 202.012C81.867 202.005 81.8629 201.999 81.8578 201.994C81.8478 201.984 81.8346 201.98 81.821 201.98C80.6205 201.98 79.4324 202.222 78.3274 202.691C77.1354 203.218 76.01 203.884 74.9748 204.675C73.3606 205.889 71.8966 207.626 70.6825 209.332C70.5372 209.528 70.4109 209.737 70.3054 209.957C70.0406 210.565 69.7396 211.156 69.404 211.728C69.1913 212.087 69.0131 212.466 68.8721 212.859C68.521 213.845 68.0673 214.832 67.7791 215.772C66.8496 218.803 66.1541 221.9 65.6989 225.037C65.3555 227.322 65.0382 229.607 64.7469 231.892Z" fill="#10322A"/>
<path d="M95.8476 231.294L98.6069 216.271H100.446L104.355 217.115L102.976 228.075L98.6069 241.029L89.7924 251.529L73.4664 263.87L68.0244 266.323L60.8961 267.166V265.249L73.4664 260.191L85.1935 249.23L95.8476 231.294Z" fill="url(#paint0_linear_59_1718)"/>
<path d="M97.0739 213.436C99.6328 214.279 103.742 215.045 105.735 214.849C106.283 217.07 106.538 219.596 106.425 221.909C106.316 224.151 106.043 226.101 105.604 227.758C104.83 230.686 103.987 233.213 103.077 235.341C102.605 236.445 101.935 237.832 101.066 239.504C100.53 240.534 100.007 241.464 99.4972 242.294C96.2166 247.632 92.1311 252.415 87.6353 256.699C82.5272 261.566 76.3182 263.984 69.7288 266.285C68.7255 266.635 67.728 266.931 66.7363 267.173C62.3903 268.236 58.0198 268.54 53.6247 268.085C52.61 267.98 51.5879 267.798 50.5586 267.539C45.7981 266.34 41.2726 264.117 37.9716 260.435C37.6062 260.027 36.7225 258.939 35.9561 257.712C35.9561 257.712 37.1652 258.884 37.566 259.2C38.8731 260.231 40.2902 261.147 41.8175 261.945C46.3086 264.294 51.2319 265.084 56.1177 264.096C58.0072 263.713 59.7245 263.235 61.2696 262.661C62.6153 262.161 64.0846 261.511 65.6777 260.712C66.9305 260.083 68.0485 259.277 69.1635 258.49C69.2741 258.412 69.3973 258.339 69.533 258.273C69.6145 258.232 69.6912 258.184 69.7632 258.128C70.3781 257.657 70.9998 257.187 71.6283 256.717C71.8412 256.559 71.7955 256.724 72.0101 256.596C72.3337 256.403 72.7547 257.425 73.0094 257.119C73.1911 256.901 73.4338 256.788 73.6452 256.596C76.0144 254.439 78.3023 252.026 80.2206 249.379C81.6236 247.445 83.0831 245.486 84.2607 243.435C85.0029 242.145 85.7582 240.805 86.5266 239.417C87.082 238.411 87.5695 237.457 87.9892 236.557C89.3975 233.531 90.6622 230.295 91.7834 226.849C92.3863 224.993 92.6854 223.165 92.9782 221.265C93.2993 219.175 93.2617 216.917 92.7528 214.849C92.3675 213.282 91.336 211.265 90.1756 210.14C91.5553 211.064 94.515 212.592 97.0739 213.436ZM97.2814 233.858C95.8815 237.27 94.1532 240.554 92.0966 243.709C90.7296 245.805 89.1354 247.72 87.7621 249.7C87.3978 250.225 87.3372 250.771 87.5805 251.336C87.6085 251.401 87.6595 251.453 87.7232 251.481C87.7868 251.509 87.8584 251.511 87.9234 251.486C88.127 251.409 88.3154 251.3 88.4887 251.159C89.1255 250.639 89.6762 250.112 90.1408 249.579C90.9686 248.625 91.8753 247.499 92.8608 246.202C95.3225 242.96 97.2861 239.307 98.9883 235.515C99.7055 233.918 100.242 232.551 100.597 231.413C100.927 230.351 101.223 229.317 101.484 228.313C101.754 227.277 101.992 226.199 102.198 225.079C102.543 223.215 102.702 221.42 102.675 219.693C102.659 218.727 102.33 217.836 101.239 217.781C100.705 217.755 100.54 218.431 100.532 218.859C100.485 221.318 100.259 223.516 99.8543 225.451C99.5641 226.835 99.0906 228.583 98.434 230.694C98.1281 231.676 97.7439 232.731 97.2814 233.858ZM62.6852 265.961C63.9891 265.942 65.0456 265.881 65.8547 265.775C66.2806 265.719 66.7274 265.61 67.1951 265.446C68.356 265.039 69.4981 264.638 70.6214 264.242C70.933 264.133 71.1663 263.959 71.2336 263.604C71.4591 262.422 70.1829 262.385 69.4767 262.709C66.9879 263.854 64.4709 264.805 61.9257 265.563C61.8735 265.579 61.8359 265.606 61.813 265.643C61.7785 265.697 61.7832 265.751 61.8271 265.804C61.8594 265.846 61.9012 265.869 61.9523 265.872C62.0755 265.88 62.1935 265.897 62.3062 265.924C62.4232 265.951 62.5495 265.963 62.6852 265.961Z" fill="url(#paint1_linear_59_1718)"/>
<path d="M49.2456 255.056C44.0433 257.715 36.1727 254.802 33.6095 252.756C34.9125 257.202 38.3944 262.202 44.0336 263.64C50.61 265.318 58.2108 265.714 68.0243 260.268C77.8379 254.821 81.8315 249.771 85.3468 244.172C88.862 238.572 91.5112 233.219 92.683 226.929C93.8547 220.639 94.6603 212.694 89.3874 209.593C87.9343 208.739 83.3648 205.068 83.675 202.996C83.7209 202.69 84.7453 201.589 87.5695 201.402L90.2522 201.479C90.2522 201.479 86.1899 200.191 80.5946 201.479C74.9993 202.766 72.4699 205.464 70.4771 208.224C68.4842 210.983 66.1848 215.659 65.4183 221.101C64.6518 226.543 64.1225 231.064 63.1189 235.97C61.0999 245.84 54.4479 252.396 49.2456 255.056Z" fill="url(#paint2_linear_59_1718)"/>
<path d="M80.7479 201.402C71.8568 203.318 68.6001 210.192 67.4112 213.052C66.2222 215.912 65.2719 220.104 64.7285 226.082C64.1851 232.061 62.2758 239.419 62.2758 239.419C62.2758 239.419 63.962 234.054 64.7285 231.218C65.495 228.382 65.4916 227.079 66.3381 221.637C67.1846 216.195 69.0974 211.136 71.3202 208.147C73.543 205.158 73.6963 204.085 80.7479 201.402Z" fill="white"/>
<path d="M124.045 204.226L122.895 204.126C122.801 204.129 122.706 204.111 122.619 204.075C122.609 204.072 122.6 204.067 122.593 204.06C122.585 204.053 122.579 204.044 122.574 204.035C122.57 204.025 122.568 204.015 122.568 204.005C122.567 203.994 122.569 203.984 122.573 203.974C122.591 203.918 122.588 203.857 122.565 203.802C122.557 203.781 122.543 203.762 122.525 203.747C122.507 203.733 122.486 203.723 122.463 203.72C122.347 203.679 122.229 203.648 122.109 203.628H120.778C120.281 203.628 120.2 203.084 119.552 203.289C118.046 203.767 117.263 204.756 116.616 206.136C116.608 206.155 116.596 206.172 116.58 206.187C116.565 206.201 116.547 206.212 116.528 206.219C116.508 206.227 116.487 206.23 116.466 206.228C116.445 206.227 116.425 206.222 116.406 206.212C116.383 206.202 116.363 206.187 116.348 206.166C115.96 205.667 115.816 205.049 115.638 204.456C115.619 204.392 115.588 204.333 115.546 204.282C115.505 204.231 115.454 204.188 115.395 204.157C115.337 204.125 115.274 204.105 115.208 204.099C115.142 204.092 115.076 204.098 115.013 204.117H114.996L113.923 204.475C113.903 204.483 113.882 204.486 113.861 204.484C113.84 204.483 113.82 204.477 113.801 204.468C113.782 204.459 113.766 204.445 113.753 204.429C113.739 204.413 113.729 204.394 113.723 204.374C113.721 204.359 113.721 204.344 113.723 204.328C113.697 203.27 113.503 202.223 113.148 201.226C113.147 201.214 113.142 201.204 113.135 201.195C113.128 201.186 113.119 201.179 113.108 201.174C113.098 201.17 113.086 201.169 113.075 201.171C113.064 201.172 113.053 201.177 113.044 201.184C112.245 201.596 111.401 201.912 110.529 202.127C110.292 202.186 110.061 202.269 109.84 202.374C109.625 202.476 109.404 202.572 109.178 202.662C109.131 202.68 109.089 202.708 109.054 202.743C109.029 202.772 108.995 202.793 108.958 202.802C108.92 202.811 108.881 202.808 108.845 202.794C108.828 202.787 108.813 202.777 108.799 202.764C108.786 202.751 108.775 202.735 108.768 202.718C108.761 202.701 108.757 202.683 108.757 202.664C108.757 202.645 108.76 202.627 108.767 202.61C108.778 202.585 108.795 202.563 108.818 202.547C108.992 202.43 109.138 202.277 109.247 202.098C109.353 201.923 109.476 201.759 109.613 201.609C109.93 201.273 110.189 200.887 110.38 200.467C110.501 200.18 110.587 199.879 110.634 199.572C110.647 199.48 110.639 199.386 110.611 199.298C110.582 199.21 110.534 199.13 110.47 199.063C110.13 198.779 109.81 198.472 109.512 198.143C109.497 198.128 109.486 198.109 109.478 198.089C109.47 198.069 109.467 198.048 109.468 198.027C109.469 198.005 109.475 197.984 109.485 197.965C109.494 197.946 109.508 197.929 109.525 197.916C109.545 197.897 109.571 197.883 109.598 197.878C110.101 197.775 110.602 197.66 111.102 197.533C111.316 197.472 111.514 197.367 111.686 197.226C111.705 197.211 111.721 197.193 111.733 197.171C111.744 197.15 111.751 197.126 111.752 197.102C111.807 196.304 111.756 195.502 111.599 194.718C112.267 195.006 112.871 195.428 113.371 195.956C113.872 196.485 114.26 197.11 114.511 197.793C114.686 198.252 114.869 198.839 115.06 199.553C115.111 199.74 115.279 199.878 115.566 199.966C116.46 200.243 117.427 200.169 118.269 199.759C119.212 199.337 120.043 198.7 120.695 197.898C121.011 197.504 121.244 197.22 121.275 196.694C121.315 196.1 121.137 195.511 120.775 195.039C119.958 193.506 118.955 192.403 117.899 191.16C117.657 190.875 117.401 190.603 117.133 190.343C116.871 190.087 116.601 189.834 116.326 189.584C116.276 189.538 116.283 189.511 116.352 189.503C116.682 189.465 117.005 189.437 117.321 189.423C117.512 189.418 117.702 189.387 117.885 189.331C118.134 189.267 118.374 189.17 118.598 189.043C118.869 188.876 119.17 188.684 119.501 188.47C119.489 188.689 119.437 188.905 119.348 189.106C119.193 189.456 119.111 189.653 119.099 189.699C119.027 189.966 119.009 190.245 119.045 190.519C119.081 190.793 119.171 191.057 119.309 191.297C119.599 191.809 120.306 191.833 120.91 191.737C123.387 191.341 125.288 189.506 126.852 187.703C127.564 186.882 128.277 186.009 128.737 185.016C128.817 184.843 128.861 184.852 128.869 185.042C128.891 185.476 128.853 185.911 128.756 186.334C128.319 188.256 127.548 190.086 126.479 191.741C125.725 192.896 124.687 194.087 123.75 195.221C123.547 195.465 123.358 195.721 123.186 195.987C123.177 196.003 123.174 196.021 123.178 196.039C123.182 196.056 123.193 196.071 123.208 196.081C124.55 196.863 126.109 197.192 127.653 197.019C128.185 196.971 128.704 196.83 129.186 196.602C129.188 196.601 129.19 196.6 129.192 196.6C129.195 196.6 129.197 196.601 129.199 196.602L129.217 196.637C129.221 196.643 129.224 196.649 129.225 196.656C129.226 196.663 129.226 196.67 129.224 196.676C129.222 196.683 129.219 196.689 129.215 196.694C129.21 196.699 129.205 196.704 129.199 196.706C128.688 197.022 128.214 197.37 127.693 197.681C127.019 198.084 126.354 198.503 125.7 198.937C124.769 199.547 123.802 200.101 122.805 200.596C122.785 200.605 122.77 200.622 122.763 200.642C122.755 200.662 122.755 200.684 122.763 200.704C123.271 202.047 124.339 202.958 125.309 203.957C125.32 203.968 125.329 203.98 125.335 203.994C125.341 204.008 125.344 204.023 125.344 204.038C125.344 204.053 125.341 204.068 125.335 204.082C125.329 204.095 125.32 204.108 125.309 204.118C125.29 204.137 125.264 204.149 125.237 204.15L124.045 204.226Z" fill="#FEFDF2"/>
<path d="M112.17 187.814C113.466 188.333 114.697 189.002 115.837 189.806C115.941 189.872 116.026 189.964 116.082 190.073C116.138 190.182 116.164 190.305 116.156 190.427C116.156 190.449 116.149 190.47 116.137 190.488C116.124 190.505 116.106 190.518 116.086 190.525C116.044 190.538 116.006 190.559 115.974 190.587C115.941 190.616 115.916 190.651 115.898 190.691C115.881 190.73 115.872 190.773 115.873 190.816C115.874 190.86 115.884 190.902 115.903 190.941C115.926 191.015 115.959 191.086 116 191.152C116.04 191.217 116.092 191.275 116.153 191.321C116.493 191.579 116.802 191.875 117.073 192.204C117.167 192.329 117.269 192.448 117.379 192.56C117.484 192.664 117.581 192.776 117.669 192.894C117.882 193.181 118.163 193.412 118.345 193.705C118.754 194.36 119.158 195.017 119.556 195.678C119.581 195.721 119.616 195.758 119.657 195.785C119.707 195.819 119.746 195.865 119.772 195.919C119.797 195.972 119.808 196.032 119.803 196.092C119.734 196.112 119.708 196.135 119.725 196.164C119.706 196.154 119.685 196.149 119.664 196.15C119.647 196.15 119.632 196.145 119.618 196.137C119.604 196.128 119.594 196.115 119.587 196.101C119.158 195.248 118.666 194.428 118.115 193.648C117.576 192.919 116.959 192.251 116.276 191.655C114.723 190.184 112.765 189.212 110.654 188.867C109.623 188.695 108.76 188.612 107.794 188.793C107.151 188.913 106.512 189.052 105.878 189.21C104.55 189.54 103.411 190.184 102.235 190.807C102.022 190.918 101.824 191.056 101.647 191.218C101.111 191.729 100.588 192.236 100.078 192.739C100.041 192.776 100.015 192.824 100.005 192.875C99.9891 192.937 99.9522 192.991 99.9006 193.029C99.2262 193.595 98.602 194.219 98.035 194.893C97.6353 195.371 97.2908 195.893 97.008 196.449C96.4316 197.551 96.0299 198.369 95.8031 198.902C95.7647 198.989 95.7019 199.168 95.613 199.44C95.069 200.701 94.3796 201.894 93.5588 202.994C92.5961 204.072 91.45 204.701 90.1204 204.882C89.987 204.9 89.9763 204.946 90.0897 205.02C91.0638 205.651 92.0759 206.221 93.1204 206.727C93.3212 206.824 93.3151 206.907 93.102 206.973L92.7954 207.068C92.5898 207.134 92.3661 207.117 92.173 207.02C90.3335 206.122 88.94 205.372 87.4668 204.092C87.1892 203.866 86.9673 203.578 86.8182 203.252C86.6691 202.927 86.5968 202.571 86.6068 202.213C86.6068 202.121 86.5655 202.093 86.4811 202.13C84.4668 203.013 87.9267 205.617 88.6687 206.093C88.869 206.228 89.0281 206.417 89.1286 206.637C89.2236 206.828 89.2021 206.943 89.0642 206.992C87.6095 206.135 86.2502 205.124 85.0095 203.979C84.7029 203.701 84.4055 203.378 84.3565 202.964C84.2216 201.814 85.9032 200.999 86.7954 200.766C88.0785 200.428 89.3907 200.516 90.7014 200.519C91.0124 200.529 91.3223 200.475 91.6121 200.362C91.902 200.249 92.1658 200.078 92.3876 199.86C92.63 199.606 92.8468 199.329 93.0345 199.033C93.0897 199.047 93.1081 199.076 93.0897 199.124C92.7112 199.994 92.1261 200.759 91.3851 201.353C90.6627 201.808 89.8274 202.051 88.9737 202.056C88.7465 202.059 88.5249 202.128 88.336 202.254C88.3149 202.267 88.2972 202.285 88.2842 202.307C88.2711 202.328 88.2632 202.352 88.2609 202.377C88.2078 202.86 88.383 203.293 88.7867 203.677C89.2466 204.114 89.9824 204.038 90.5205 203.813C92.429 203.047 93.3442 201.294 94.0999 199.502C94.5384 198.463 95.0698 197.312 95.6942 196.05C96.0253 195.367 96.4326 194.723 96.9083 194.131C98.1582 192.598 99.194 191.482 100.016 190.784C101.728 189.31 103.759 188.251 105.948 187.691C107.994 187.159 110.147 187.201 112.17 187.814Z" fill="#FEFDF2"/>
<path d="M116.27 191.654C116.152 191.694 116.047 191.764 115.966 191.859C115.886 191.953 115.831 192.067 115.81 192.189C115.784 192.31 115.701 192.35 115.56 192.307C113.9 190.774 111.714 189.819 109.453 189.796C107.864 189.771 106.288 190.07 104.819 190.674C103.35 191.278 102.019 192.175 100.908 193.31C100.082 194.134 99.3286 195.028 98.6559 195.981C98.2871 196.515 97.9762 197.086 97.7285 197.685C97.2042 198.93 96.731 200.197 96.309 201.485C95.9554 202.566 95.6023 203.645 95.2497 204.722C95.0092 205.551 94.6059 206.323 94.0632 206.994C94.0539 207.005 94.0469 207.018 94.0427 207.032C94.0384 207.045 94.037 207.06 94.0384 207.074C94.0398 207.088 94.0441 207.102 94.051 207.115C94.0579 207.128 94.0673 207.139 94.0785 207.148C94.0857 207.154 94.094 207.159 94.103 207.163L95.4674 207.755C96.4522 208.178 97.4864 208.476 98.5456 208.642C98.5735 208.758 98.6256 208.868 98.6985 208.962C98.7714 209.057 98.8635 209.136 98.9686 209.193C98.283 209.143 97.6035 209.029 96.939 208.852C95.8975 208.577 94.8736 208.238 93.8731 207.839C93.7106 207.773 93.6554 207.825 93.706 207.992C93.7218 208.043 93.7185 208.097 93.6968 208.146C93.6968 208.153 93.6968 208.159 93.706 208.162L93.7428 208.178C93.7436 208.179 93.744 208.181 93.744 208.183C93.744 208.185 93.7436 208.187 93.7428 208.188C93.7184 208.577 93.6017 208.954 93.4025 209.289C91.8866 208.647 90.4277 207.878 89.0412 206.99C89.1792 206.944 89.1945 206.826 89.1056 206.634C89.0051 206.414 88.846 206.226 88.6457 206.09C87.9038 205.615 84.4439 203.01 86.4582 202.127C86.5425 202.09 86.5854 202.118 86.5839 202.21C86.5738 202.568 86.6461 202.924 86.7952 203.25C86.9443 203.575 87.1662 203.863 87.4439 204.089C88.917 205.369 90.3074 206.119 92.1501 207.017C92.3431 207.115 92.5668 207.132 92.7724 207.065L93.079 206.97C93.2921 206.904 93.2982 206.816 93.0974 206.724C92.053 206.218 91.0408 205.648 90.0668 205.017C89.9533 204.943 89.9641 204.897 90.0974 204.879C91.426 204.699 92.5721 204.07 93.5359 202.992C94.4307 202.004 95.1372 200.861 95.6207 199.619C95.6835 199.458 95.6743 199.397 95.59 199.432C95.6789 199.161 95.7433 198.981 95.7801 198.894C96.007 198.366 96.4086 197.548 96.985 196.441C97.2678 195.886 97.6123 195.364 98.0121 194.885C98.579 194.211 99.2032 193.588 99.8777 193.021C99.9293 192.984 99.9661 192.93 99.9819 192.868C99.992 192.816 100.018 192.769 100.056 192.732C100.567 192.221 101.089 191.714 101.624 191.211C101.801 191.048 101.999 190.91 102.212 190.8C103.388 190.176 104.527 189.532 105.855 189.203C106.49 189.044 107.129 188.905 107.771 188.786C108.737 188.605 109.6 188.688 110.631 188.859C112.749 189.203 114.714 190.177 116.27 191.654ZM97.2609 196.274C97.0574 196.797 96.8081 197.3 96.5159 197.778C96.4663 197.857 96.4437 197.949 96.4515 198.042C96.4515 198.095 96.4745 198.1 96.5037 198.054C96.7307 197.74 96.9205 197.4 97.0693 197.042C97.1996 196.693 97.3437 196.348 97.4985 196.009C97.5907 195.835 97.7045 195.673 97.8373 195.528C97.8399 195.526 97.8419 195.524 97.8434 195.521C97.8448 195.518 97.8456 195.515 97.8456 195.512C97.8456 195.509 97.8448 195.506 97.8434 195.504C97.8419 195.501 97.8399 195.499 97.8373 195.497C97.684 195.388 97.6718 195.393 97.8113 195.511C97.8132 195.512 97.8148 195.513 97.8159 195.515C97.817 195.517 97.8176 195.519 97.8176 195.522C97.8176 195.524 97.817 195.526 97.8159 195.528C97.8148 195.53 97.8132 195.531 97.8113 195.532C97.5629 195.724 97.3729 195.981 97.2625 196.274H97.2609Z" fill="#8D8F7D"/>
<path d="M99.2768 211.433C100.029 211.507 100.784 211.533 101.539 211.512C101.958 211.501 102.169 211.315 102.177 210.955C102.205 210.012 101.991 209.078 101.555 208.242C101.466 208.073 101.401 208.089 101.369 208.269C101.297 208.653 101.034 208.912 100.581 209.047C100.061 209.203 99.5144 209.252 98.9748 209.189C98.8696 209.132 98.7776 209.054 98.7047 208.959C98.6318 208.864 98.5797 208.755 98.5517 208.639C98.9094 208.679 99.2711 208.666 99.6248 208.599C100.347 208.386 100.198 207.845 99.9176 207.313C99.6181 206.744 99.3856 206.267 99.2201 205.884C98.3949 204.022 98.2358 201.933 98.7694 199.967C98.846 199.669 99.1153 198.992 99.5773 197.937C100.01 196.95 100.756 195.917 101.815 194.839C103.322 193.287 105.257 192.219 107.374 191.773C108.77 191.491 110.21 191.516 111.596 191.845C112.548 192.05 113.433 192.491 114.169 193.128C114.675 193.564 115.114 194.22 115.528 194.793C115.652 194.964 115.742 195.157 115.793 195.362C115.807 195.416 115.793 195.425 115.75 195.388C115.559 195.217 115.371 195.038 115.186 194.85C115.006 194.663 114.814 194.487 114.611 194.326C113.35 193.347 111.859 192.709 110.28 192.474C109.777 192.412 109.269 192.393 108.763 192.416C108.32 192.431 107.88 192.493 107.451 192.601C106.592 192.815 105.759 193.12 104.966 193.51C103.359 194.297 102.036 195.788 101.012 197.22C100.549 197.846 100.191 198.542 99.9513 199.283C99.3657 201.143 99.2707 203.382 100.299 205.108C100.539 205.493 100.817 205.852 101.129 206.182C102.215 207.371 103.405 208.43 103.549 210.106C103.6 210.739 103.6 211.375 103.549 212.008C103.547 212.037 103.534 212.063 103.514 212.082C103.493 212.101 103.466 212.111 103.437 212.111C102.021 212.091 100.656 211.811 99.2768 211.433Z" fill="#F13418"/>
<path d="M116.27 191.654C116.953 192.25 117.57 192.918 118.109 193.647C118.66 194.426 119.152 195.246 119.581 196.099C119.588 196.114 119.598 196.126 119.612 196.135C119.625 196.144 119.641 196.148 119.657 196.148C119.679 196.148 119.7 196.153 119.719 196.162C119.725 196.188 119.726 196.215 119.722 196.241C119.719 196.267 119.709 196.293 119.696 196.316C119.685 196.339 119.669 196.359 119.649 196.375C119.63 196.392 119.607 196.404 119.582 196.411C119.553 196.419 119.522 196.422 119.492 196.421C119.444 196.419 119.396 196.432 119.355 196.458C119.231 196.537 119.091 196.586 118.945 196.601C118.921 196.604 118.896 196.601 118.874 196.591C118.851 196.582 118.832 196.566 118.817 196.547C118.628 196.313 118.452 196.067 118.292 195.813C118.009 195.366 117.697 194.878 117.355 194.347C116.842 193.597 116.243 192.91 115.571 192.299C115.712 192.342 115.794 192.299 115.82 192.181C115.842 192.062 115.896 191.95 115.974 191.857C116.053 191.765 116.155 191.695 116.27 191.654Z" fill="#2A3A3B"/>
<path d="M111.07 194.536L111.585 194.717C111.742 195.501 111.793 196.303 111.738 197.101C111.737 197.125 111.73 197.148 111.719 197.17C111.707 197.191 111.692 197.21 111.672 197.225C111.501 197.366 111.302 197.47 111.088 197.531C110.588 197.657 110.087 197.772 109.584 197.876C109.564 197.881 109.544 197.889 109.526 197.901C109.509 197.913 109.494 197.928 109.482 197.946C109.471 197.964 109.463 197.984 109.459 198.005C109.455 198.026 109.456 198.047 109.46 198.068C109.467 198.095 109.48 198.12 109.498 198.141C109.796 198.47 110.116 198.778 110.457 199.061C110.521 199.128 110.569 199.209 110.597 199.297C110.625 199.385 110.633 199.478 110.621 199.57C110.573 199.878 110.487 200.179 110.366 200.465C110.175 200.886 109.916 201.271 109.6 201.607C109.462 201.758 109.339 201.922 109.233 202.096C109.124 202.275 108.978 202.428 108.804 202.546C108.773 202.567 108.752 202.6 108.746 202.636C108.739 202.673 108.747 202.711 108.769 202.742C108.784 202.765 108.806 202.782 108.832 202.792C108.867 202.807 108.907 202.809 108.944 202.8C108.981 202.791 109.015 202.771 109.04 202.742C109.075 202.706 109.118 202.679 109.164 202.661C109.39 202.574 109.611 202.478 109.826 202.372C110.047 202.268 110.278 202.185 110.515 202.126C111.387 201.911 112.232 201.594 113.03 201.183C113.039 201.176 113.05 201.171 113.061 201.169C113.072 201.168 113.084 201.169 113.095 201.173C113.105 201.177 113.114 201.184 113.122 201.193C113.129 201.202 113.133 201.213 113.135 201.224C113.489 202.222 113.683 203.269 113.709 204.327C113.709 204.368 113.726 204.407 113.754 204.435C113.783 204.464 113.822 204.48 113.863 204.48C113.878 204.48 113.894 204.477 113.909 204.473L114.982 204.114C115.045 204.093 115.111 204.084 115.177 204.089C115.243 204.093 115.307 204.111 115.367 204.14C115.426 204.17 115.479 204.21 115.522 204.26C115.565 204.31 115.599 204.368 115.62 204.431V204.448C115.797 205.041 115.941 205.659 116.329 206.159C116.342 206.176 116.357 206.19 116.375 206.2C116.393 206.211 116.413 206.217 116.434 206.22C116.454 206.223 116.475 206.221 116.495 206.215C116.515 206.209 116.534 206.2 116.55 206.186C116.57 206.171 116.587 206.151 116.598 206.128C117.244 204.748 118.028 203.76 119.533 203.281C120.179 203.076 120.26 203.616 120.76 203.62H122.09C122.211 203.641 122.329 203.672 122.444 203.712C122.467 203.716 122.489 203.725 122.507 203.74C122.525 203.754 122.539 203.773 122.547 203.795C122.569 203.85 122.572 203.91 122.555 203.967C122.551 203.976 122.549 203.987 122.549 203.997C122.549 204.007 122.552 204.018 122.556 204.027C122.56 204.037 122.566 204.045 122.574 204.052C122.582 204.059 122.591 204.064 122.601 204.068C122.688 204.104 122.782 204.121 122.877 204.118C122.363 204.129 121.848 204.137 121.334 204.143C121.049 204.143 120.562 204.281 119.872 204.557C118.561 205.078 117.898 206.173 117.697 207.519C117.656 207.811 117.663 208.108 117.72 208.398C117.786 208.772 117.747 208.783 117.602 208.432C117.406 207.978 117.159 207.549 116.864 207.152C115.945 205.863 114.487 206.114 113.36 206.951C113.347 206.96 113.332 206.966 113.316 206.966C113.3 206.967 113.284 206.963 113.271 206.955C113.257 206.948 113.246 206.936 113.239 206.922C113.231 206.908 113.228 206.892 113.23 206.876C113.304 206.212 113.282 205.541 113.164 204.883C112.848 203.108 111.974 202.455 110.214 202.848C109.386 203.032 108.579 203.301 107.806 203.652C107.685 203.708 107.653 203.677 107.717 203.559C107.892 203.23 108.076 202.872 108.271 202.486C108.316 202.407 108.381 202.34 108.458 202.291C108.536 202.242 108.624 202.214 108.715 202.207C108.768 202.206 108.82 202.187 108.861 202.153C109.054 201.988 109.202 201.777 109.291 201.54C109.857 199.898 109.426 198.637 107.999 197.757C107.8 197.627 107.636 197.45 107.521 197.242C107.495 197.197 107.507 197.174 107.561 197.176C108.119 197.182 108.681 197.186 109.247 197.188C109.64 197.201 110.026 197.077 110.338 196.838C110.617 196.6 110.813 196.282 110.901 195.926C111.032 195.475 111.089 195.005 111.07 194.536Z" fill="#FCBC5C"/>
<path d="M97.2625 196.274C97.372 195.981 97.5609 195.724 97.8082 195.533C97.8101 195.531 97.8117 195.53 97.8128 195.528C97.8139 195.526 97.8145 195.524 97.8145 195.522C97.8145 195.52 97.8139 195.517 97.8128 195.516C97.8117 195.514 97.8101 195.512 97.8082 195.511C97.6687 195.393 97.6779 195.388 97.8342 195.497C97.8368 195.499 97.8388 195.501 97.8403 195.504C97.8417 195.507 97.8425 195.51 97.8425 195.513C97.8425 195.516 97.8417 195.519 97.8403 195.521C97.8388 195.524 97.8368 195.526 97.8342 195.528C97.7014 195.673 97.5876 195.835 97.4955 196.009C97.3422 196.348 97.1965 196.693 97.0662 197.042C96.9174 197.4 96.7276 197.74 96.5006 198.054C96.4714 198.1 96.4531 198.096 96.4485 198.042C96.4406 197.949 96.4632 197.857 96.5128 197.778C96.8066 197.3 97.0575 196.797 97.2625 196.274Z" fill="#FEFDF2"/>
<path d="M123.786 196.074C123.816 196.023 123.786 195.948 123.717 195.907C123.648 195.865 123.567 195.872 123.537 195.923C123.506 195.974 123.537 196.049 123.606 196.09C123.674 196.132 123.755 196.125 123.786 196.074Z" fill="#FCBC5C"/>
<path d="M93.0836 199.122C93.102 199.075 93.0836 199.046 93.0284 199.032C93.1317 198.804 93.2602 198.589 93.4116 198.39C93.4898 198.29 93.5082 198.299 93.4637 198.42C93.3679 198.67 93.2401 198.906 93.0836 199.122Z" fill="#8D8F7D"/>
<path d="M90.5251 203.814C89.987 204.039 89.2527 204.12 88.7913 203.677C88.3825 203.293 88.2073 202.86 88.2655 202.377C88.2678 202.352 88.2757 202.328 88.2888 202.307C88.3018 202.286 88.3195 202.268 88.3406 202.255C88.5295 202.128 88.7511 202.059 88.9783 202.057C89.8305 202.051 90.664 201.807 91.3851 201.353C91.4421 201.368 91.5021 201.367 91.5586 201.35C91.6151 201.334 91.6659 201.302 91.7055 201.258C91.7428 201.226 91.791 201.209 91.8404 201.211C91.9667 201.211 92.09 201.25 92.1945 201.321C92.2004 201.324 92.2055 201.328 92.2095 201.333C92.2135 201.338 92.2163 201.344 92.2175 201.35C92.2187 201.356 92.2183 201.363 92.2165 201.369C92.2146 201.375 92.2113 201.381 92.2067 201.385C92.1984 201.398 92.1875 201.409 92.1745 201.418C92.1729 201.419 92.1716 201.421 92.1707 201.423C92.1698 201.425 92.1694 201.427 92.1694 201.429C92.1694 201.431 92.1698 201.433 92.1707 201.435C92.1716 201.437 92.1729 201.439 92.1745 201.441C92.297 201.649 92.3748 201.88 92.403 202.12C92.406 202.144 92.404 202.169 92.3972 202.193C92.3903 202.216 92.3787 202.238 92.3631 202.258C92.1031 202.587 91.8017 202.881 91.4663 203.133C91.3569 203.216 91.2543 203.308 91.1597 203.407C91.1291 203.439 91.0895 203.461 91.0463 203.47C90.8341 203.512 90.6469 203.635 90.5251 203.814Z" fill="#5B6450"/>
<path d="M98.9747 209.189C99.5146 209.253 100.062 209.206 100.583 209.051C101.037 208.916 101.299 208.657 101.371 208.274C101.406 208.087 101.467 208.078 101.556 208.246C101.992 209.083 102.206 210.017 102.179 210.96C102.179 211.32 101.959 211.506 101.541 211.516C100.786 211.537 100.03 211.511 99.2783 211.438C97.3713 210.866 96.1735 210.49 95.685 210.311C94.9125 210.01 94.1562 209.669 93.4193 209.289C93.6185 208.954 93.7352 208.577 93.7596 208.188C93.7604 208.187 93.7609 208.185 93.7609 208.183C93.7609 208.181 93.7604 208.179 93.7596 208.177L93.7228 208.162C93.7136 208.162 93.7106 208.153 93.7136 208.145C93.7354 208.097 93.7386 208.043 93.7228 207.992C93.6722 207.825 93.7228 207.773 93.8899 207.839C94.8905 208.238 95.9143 208.577 96.9558 208.852C97.6169 209.027 98.2928 209.14 98.9747 209.189Z" fill="#2A3A3B"/>
<path d="M84.8946 211.116C83.9749 212.274 82.399 211.576 83.4506 210.166C83.6261 210.009 83.8362 209.896 84.0638 209.835C84.5359 209.708 84.9698 209.95 85.0464 210.433C85.077 210.671 85.0233 210.913 84.8946 211.116Z" fill="#FEFDF2"/>
<path fill-rule="evenodd" clip-rule="evenodd" d="M106.603 231.358C106.618 231.359 106.632 231.358 106.646 231.354C107.149 229.796 107.572 228.213 107.914 226.611C108.263 224.85 108.428 223.056 108.404 221.26C108.375 218.341 108.039 215.56 106.419 213.091C106.359 213 106.279 212.906 106.196 212.807C106.079 212.668 105.953 212.52 105.864 212.358C105.85 212.333 105.829 212.313 105.803 212.302C105.776 212.291 105.747 212.289 105.72 212.297C105.692 212.305 105.668 212.321 105.652 212.344C105.635 212.367 105.627 212.396 105.628 212.424C105.66 212.712 105.66 213.002 105.628 213.29C105.604 213.445 105.541 213.592 105.445 213.716C104.777 214.624 103.136 214.537 101.972 214.474C101.81 214.466 101.656 214.458 101.516 214.453C100.869 214.439 99.547 214.149 98.8815 214.003L98.8334 213.993C99.8298 214.299 101.467 214.774 102.359 214.989C102.772 215.089 103.176 215.181 103.564 215.269C104.368 215.452 105.102 215.619 105.703 215.812C105.733 215.809 105.763 215.818 105.787 215.836C105.812 215.853 105.829 215.879 105.836 215.908C106.138 217.086 106.31 218.293 106.35 219.508C106.418 221.599 106.29 223.693 105.968 225.761C105.828 226.598 105.643 227.428 105.413 228.246C105.02 229.642 104.576 231.018 104.081 232.375L104.107 232.452C104.112 232.466 104.117 232.478 104.122 232.488C104.102 232.484 104.086 232.462 104.073 232.423L104.047 232.347C103.441 234.068 102.714 235.744 101.87 237.363C100.876 239.28 100.226 240.481 99.919 240.965C98.1155 243.883 96.0744 246.648 93.8163 249.231C91.7754 251.554 89.6053 253.76 87.3166 255.839C84.5068 258.364 81.4417 260.589 78.171 262.479C75.1509 264.238 71.9266 265.621 68.5701 266.596C67.5912 266.875 66.5979 267.101 65.5946 267.272C64.4111 267.486 63.404 267.639 62.5731 267.732C60.2046 267.983 57.8178 268.015 55.4433 267.827C53.683 267.708 51.9422 267.386 50.2558 266.867C49.1541 266.546 48.0694 266.168 47.006 265.736C45.4887 265.083 42.8063 263.835 41.4291 262.923C40.012 261.97 38.5135 260.886 37.4158 259.578C36.8975 258.97 35.8348 257.325 35.2133 256.363C34.9891 256.015 34.8223 255.757 34.7592 255.669C34.8672 255.864 35.004 256.124 35.1643 256.429C35.761 257.566 36.6846 259.324 37.6718 260.651C38.9243 262.333 41.1342 264.093 43.3514 265.37C44.3136 265.906 46.5419 266.827 47.5747 267.209C50.947 268.537 54.5285 269.255 58.1521 269.329C61.8915 269.387 65.2737 269.038 68.2987 268.282C73.2196 267.059 77.8947 265.002 82.1214 262.201C84.9584 260.328 87.3687 258.484 89.3524 256.67C91.7546 254.45 94.0329 252.1 96.1771 249.629C97.3106 248.334 98.3651 246.972 99.335 245.55C100.381 244.019 101.4 242.414 102.39 240.735C103.403 239.018 104.469 236.706 105.172 235.174C105.728 233.932 106.206 232.658 106.603 231.358ZM104.252 232.262C104.252 232.265 104.254 232.268 104.256 232.273C104.26 232.278 104.264 232.282 104.27 232.286C104.274 232.288 104.279 232.29 104.284 232.291C104.286 232.274 104.275 232.265 104.254 232.262C104.253 232.262 104.252 232.262 104.252 232.262Z" fill="#DB1018"/>
<path d="M71.6268 229.155C70.891 229.155 70.7071 228.542 70.7071 228.235C70.7071 228.235 70.937 224.249 71.0903 222.793C71.2436 221.337 71.6268 217.734 73.6197 213.519C75.6125 209.303 78.1419 207.31 79.5982 206.544C81.0545 205.777 82.0254 206.314 82.3575 206.697C82.7152 207.182 83.1393 208.429 81.9743 209.533C80.518 210.913 77.6054 212.599 75.3059 217.274C74.0203 219.888 73.2109 224.811 72.8532 226.855C72.751 227.622 72.3627 229.155 71.6268 229.155Z" fill="white"/>
<defs>
<linearGradient id="paint0_linear_59_1718" x1="82.6258" y1="216.271" x2="82.6258" y2="267.166" gradientUnits="userSpaceOnUse">
<stop stop-color="#FE1F25"/>
<stop offset="1" stop-color="#900318"/>
</linearGradient>
<linearGradient id="paint1_linear_59_1718" x1="71.3202" y1="205.081" x2="71.3202" y2="270.078" gradientUnits="userSpaceOnUse">
<stop stop-color="#590E26"/>
<stop offset="1" stop-color="#461432"/>
</linearGradient>
<linearGradient id="paint2_linear_59_1718" x1="60.4134" y1="203.534" x2="60.4134" y2="260.899" gradientUnits="userSpaceOnUse">
<stop stop-color="#F89240"/>
<stop offset="1" stop-color="#E92718"/>
</linearGradient>
</defs>
</svg>
