<svg width="17" height="14" viewBox="0 0 17 14" fill="none" xmlns="http://www.w3.org/2000/svg">
<path d="M2.59938 1.53259C3.69982 1.02397 4.87647 0.654327 6.10662 0.443848C6.25769 0.713675 6.43419 1.0766 6.55588 1.3653C7.86356 1.17103 9.15922 1.17103 10.4428 1.3653C10.5645 1.0766 10.745 0.713675 10.8975 0.443848C12.1289 0.654327 13.3069 1.02533 14.4074 1.53529C16.627 4.8487 17.2287 8.07981 16.9278 11.265C15.4557 12.3511 14.029 13.0108 12.6263 13.4425C12.28 12.9717 11.9712 12.4711 11.7051 11.9436C12.2118 11.7534 12.6972 11.5187 13.1558 11.2462C13.0342 11.1571 12.9151 11.064 12.8002 10.9682C10.0029 12.2607 6.9637 12.2607 4.19989 10.9682C4.08356 11.064 3.96458 11.1571 3.84424 11.2462C4.3042 11.52 4.7909 11.7548 5.29766 11.945C5.03158 12.4711 4.72404 12.973 4.3764 13.4438C2.97243 13.0121 1.54441 12.3524 0.0722542 11.265C-0.280748 7.57255 0.675279 4.37111 2.59938 1.53259ZM11.324 9.30615C12.1637 9.30615 12.8523 8.53176 12.8523 7.58873C12.8523 6.64571 12.1784 5.86997 11.324 5.86997C10.4696 5.86997 9.78098 6.64435 9.79568 7.58873C9.79436 8.53176 10.4696 9.30615 11.324 9.30615ZM5.67606 9.30615C6.51576 9.30615 7.20438 8.53176 7.20438 7.58873C7.20438 6.64571 6.53048 5.86997 5.67606 5.86997C4.82166 5.86997 4.13304 6.64435 4.14774 7.58873C4.14774 8.53176 4.82166 9.30615 5.67606 9.30615Z" fill="white"/>
</svg>
